<svg width="355" height="107" viewBox="0 0 355 107" fill="none" xmlns="http://www.w3.org/2000/svg">
<path d="M106.842 29H139.348C139.629 29 139.816 29.1167 139.91 29.35C140.05 29.5367 140.027 29.7467 139.84 29.98L134.644 36.77C134.036 37.5167 133.264 37.89 132.327 37.89H114.986V49.09H132.538C133.1 49.09 133.381 49.37 133.381 49.93V57.07C133.381 57.6767 133.1 57.98 132.538 57.98H114.986V77.16C114.986 77.72 114.682 78 114.074 78H106.842C106.608 78 106.398 77.93 106.211 77.79C106.07 77.6033 106 77.3933 106 77.16V29.84C106 29.6067 106.07 29.42 106.211 29.28C106.398 29.0933 106.608 29 106.842 29Z" fill="white"/>
<path d="M140 53.2992C140 49.8443 140.633 46.6361 141.9 43.6747C143.212 40.6684 144.954 38.0884 147.126 35.9347C149.343 33.7361 151.944 32.031 154.93 30.8195C157.916 29.5632 161.128 28.9575 164.567 29.0023C168.005 29.0472 171.217 29.7202 174.203 31.0215C177.189 32.3227 179.768 34.095 181.94 36.3385C184.157 38.582 185.899 41.2069 187.165 44.2131C188.432 47.1745 189.043 50.3378 188.998 53.703C188.952 57.1132 188.274 60.2989 186.962 63.2603C185.65 66.2217 183.863 68.8017 181.601 71.0003C179.384 73.199 176.782 74.9264 173.796 76.1828C170.81 77.3943 167.598 78 164.16 78C160.766 78 157.577 77.3718 154.591 76.1155C151.65 74.8143 149.094 73.0643 146.922 70.8657C144.75 68.6223 143.054 65.9974 141.832 62.9911C140.611 59.9849 140 56.7542 140 53.2992ZM148.687 53.6357C148.687 55.8344 149.116 57.9208 149.976 59.8951C150.836 61.8694 151.989 63.5969 153.437 65.0776C154.885 66.5583 156.559 67.7249 158.459 68.5774C160.359 69.4299 162.395 69.8562 164.567 69.8562C166.693 69.8113 168.706 69.3402 170.607 68.4428C172.507 67.5454 174.158 66.3563 175.561 64.8756C177.008 63.3501 178.139 61.6002 178.954 59.6259C179.768 57.6068 180.153 55.4979 180.107 53.2992C180.107 51.1006 179.678 49.0142 178.818 47.0399C177.958 45.0656 176.805 43.3606 175.357 41.9248C173.909 40.4441 172.213 39.2775 170.267 38.4249C168.367 37.5724 166.354 37.1462 164.227 37.1462C162.101 37.191 160.088 37.6622 158.187 38.5596C156.287 39.4121 154.636 40.6011 153.233 42.1267C151.831 43.6074 150.722 45.3349 149.908 47.3091C149.094 49.2834 148.687 51.3923 148.687 53.6357Z" fill="white"/>
<path d="M195 29.84C195 29.6067 195.07 29.42 195.211 29.28C195.398 29.0933 195.608 29 195.842 29H232.91C233.144 29 233.331 29.0933 233.472 29.28C233.659 29.42 233.753 29.6067 233.753 29.84V40.13C233.753 40.7833 233.542 41.3667 233.121 41.88L222.029 56.37L237.895 77.02C238.035 77.2533 238.035 77.4867 237.895 77.72C237.801 77.9067 237.637 78 237.403 78H228.487C227.551 78 226.779 77.6267 226.171 76.88L210.796 56.93C210.468 56.5567 210.468 56.2067 210.796 55.88L224.626 37.89H203.986V77.16C203.986 77.72 203.682 78 203.073 78H195.842C195.608 78 195.398 77.93 195.211 77.79C195.07 77.6033 195 77.3933 195 77.16V29.84Z" fill="white"/>
<path d="M236 53.2992C236 49.8443 236.634 46.6361 237.902 43.6747C239.215 40.6684 240.959 38.0884 243.133 35.9347C245.352 33.7361 247.956 32.031 250.945 30.8195C253.933 29.5632 257.149 28.9575 260.591 29.0023C263.896 29.0472 266.999 29.6754 269.897 30.8869C272.795 32.0535 275.331 33.6912 277.505 35.8001C277.867 36.159 277.89 36.518 277.573 36.8769L273.226 42.4632C273.09 42.6876 272.886 42.8222 272.614 42.867C272.388 42.867 272.184 42.7549 272.003 42.5305C270.554 40.8703 268.81 39.5467 266.772 38.5596C264.734 37.5724 262.561 37.1013 260.251 37.1462C258.122 37.1462 256.107 37.5949 254.205 38.4922C252.303 39.3896 250.65 40.5787 249.246 42.0594C247.842 43.5401 246.733 45.29 245.918 47.3091C245.103 49.2834 244.695 51.3923 244.695 53.6357C244.695 55.8344 245.125 57.9208 245.986 59.8951C246.846 61.8694 248.001 63.5969 249.45 65.0776C250.899 66.5583 252.575 67.7249 254.477 68.5774C256.379 69.4299 258.417 69.8562 260.591 69.8562C262.357 69.8113 264.032 69.4748 265.617 68.8466C267.248 68.2184 268.72 67.3659 270.033 66.289C271.391 65.2122 272.546 63.9558 273.497 62.52C274.448 61.0393 275.15 59.4464 275.603 57.7414H262.357C262.13 57.7414 261.949 57.6516 261.813 57.4722C261.723 57.2478 261.745 57.0235 261.881 56.7991L266.229 50.4724C266.817 49.6648 267.587 49.261 268.538 49.261H284.638C284.774 50.0237 284.864 50.7641 284.909 51.482C285 52.1999 285.023 52.9403 284.977 53.703C284.932 57.1132 284.253 60.2989 282.939 63.2603C281.671 66.2217 279.905 68.8017 277.641 71.0003C275.422 73.199 272.818 74.9264 269.829 76.1828C266.84 77.3943 263.625 78 260.183 78C256.787 78 253.594 77.3718 250.605 76.1155C247.661 74.8143 245.103 73.0643 242.929 70.8657C240.755 68.6223 239.057 65.9974 237.834 62.9911C236.611 59.9849 236 56.7542 236 53.2992Z" fill="white"/>
<path d="M291.867 29H325.329C325.618 29 325.811 29.1167 325.907 29.35C326.052 29.5367 326.028 29.7467 325.835 29.98L320.487 36.77C319.86 37.5167 319.065 37.89 318.102 37.89H300.251V49.09H318.319C318.897 49.09 319.186 49.37 319.186 49.93V57.07C319.186 57.6767 318.897 57.98 318.319 57.98H300.251V69.11H323.088C323.329 69.11 323.522 69.2033 323.667 69.39C323.859 69.53 323.956 69.7167 323.956 69.95V77.16C323.956 77.72 323.667 78 323.088 78H291.867C291.626 78 291.41 77.93 291.217 77.79C291.072 77.6033 291 77.3933 291 77.16V29.84C291 29.6067 291.072 29.42 291.217 29.28C291.41 29.0933 291.626 29 291.867 29Z" fill="white"/>
<path d="M28.1637 77.02L64.9739 30.12C65.5945 29.3733 66.3823 29 67.3372 29H74.1406C74.7135 29 75 29.28 75 29.84V77.16C75 77.72 74.7135 78 74.1406 78H67.3372C66.3823 78 65.5945 77.6267 64.9739 76.88L52.5845 61.06L40.1234 76.88C39.5028 77.6267 38.715 78 37.7601 78H28.665C28.4263 78 28.2353 77.9067 28.0921 77.72C27.9488 77.4867 27.9727 77.2533 28.1637 77.02ZM58.5285 53.4999L65.9049 62.88V44.12L58.5285 53.4999Z" fill="url(#paint0_linear_10_146)"/>
<path d="M81.8438 29H89.0859C89.6953 29 90 29.28 90 29.84V77.16C90 77.72 89.6953 78 89.0859 78H81.8438C81.6094 78 81.3984 77.93 81.2109 77.79C81.0703 77.6033 81 77.3933 81 77.16V29.84C81 29.6067 81.0703 29.42 81.2109 29.28C81.3984 29.0933 81.6094 29 81.8438 29Z" fill="url(#paint1_linear_10_146)"/>
<defs>
<linearGradient id="paint0_linear_10_146" x1="94.5062" y1="29" x2="94.5062" y2="78" gradientUnits="userSpaceOnUse">
<stop stop-color="#FF5C00"/>
<stop offset="0.314205" stop-color="#FFB700"/>
<stop offset="1" stop-color="#FF6625"/>
</linearGradient>
<linearGradient id="paint1_linear_10_146" x1="93.7352" y1="29" x2="93.7352" y2="78" gradientUnits="userSpaceOnUse">
<stop stop-color="#FF5C00"/>
<stop offset="0.314205" stop-color="#FFB700"/>
<stop offset="1" stop-color="#FF6625"/>
</linearGradient>
</defs>
</svg>
